:FULLY-SPECIFIED
:FORCE-ALL-JOINTS-BE-3DOF
:DEGREES
57
root 0.605026 18.7017 -5.71911 5.19254 -4.83383 -5.84224
lfemur -30.7005 -5.37824 -10.4184
ltibia 45.5316 -0 0
lfoot 14.949 -2.21512 0.203381
ltoes -14.2206 0 0
rfemur 16.1111 8.28499 33.0229
rtibia 18.7844 -0 0
rfoot 26.5663 -1.97788 -0.348705
rtoes 17.8793 -0 0
lowerback 13.2301 0.962869 5.84292
upperback 0.879769 2.17834 0.493428
thorax -6.16614 0.908906 -3.13422
lowerneck -7.13236 0.0479549 -0.847384
upperneck -7.26455 0.144903 0.81493
head -1.07181 0.0911809 0.353703
lclavicle -8.20629e-15 -2.25075e-15 -2.08887e-31
lhumerus -57.1579 -6.31017 92.004
lradius 104.675 -0 0
lwrist 26.8539 0 0
lhand -37.7785 10.8098 0.00153277
lfingers 7.12502 -0 0
lthumb -10.8255 40.51 0.00163242
rclavicle -8.20629e-15 -2.25075e-15 -2.08887e-31
rhumerus -34.9208 20.2991 -88.0701
rradius 107.419 -0 0
rwrist -2.25485 0 0
rhand -43.7059 36.4973 -0.000496135
rfingers 7.12502 -0 0
rthumb -16.5381 7.18206 -0.000483601
58
root 0.607375 18.7369 -5.18695 5.25891 -4.58365 -6.12488
lfemur -32.2376 -5.83052 -9.6902
ltibia 44.1049 -0 0
lfoot 14.369 -2.48227 0.176227
ltoes -14.5488 0 0
rfemur 17.7842 8.39335 33.3768
rtibia 18.4281 -0 0
rfoot 27.7081 -2.209 -0.302002
rtoes 18.1896 -0 0
lowerback 13.1443 1.06388 6.14137
upperback 0.857438 2.35105 0.502565
thorax -6.13208 0.98636 -3.32533
lowerneck -7.25318 -0.0894174 -0.821643
upperneck -7.11353 -0.0353393 0.893582
head -1.00195 0.000144264 0.375911
lclavicle -8.58622e-15 -2.67077e-15 -1.81035e-31
lhumerus -58.0608 -5.81759 91.8195
lradius 104.576 -0 0
lwrist 26.7103 0 0
lhand -37.7303 10.8341 0.0013284
lfingers 7.12502 -0 0
lthumb -10.779 40.5369 0.00141476
rclavicle -8.58622e-15 -2.67077e-15 -1.81035e-31
rhumerus -34.1761 20.9998 -88.0951
rradius 107.997 -0 0
rwrist -2.16339 0 0
rhand -43.6982 36.4476 -0.000429983
rfingers 7.12502 -0 0
rthumb -16.5307 7.13177 -0.00041912
59
root 0.609724 18.7721 -4.65478 5.32402 -4.33315 -6.40713
lfemur -33.7815 -6.26316 -8.94948
ltibia 42.6782 -0 0
lfoot 13.7892 -2.74913 0.14637
ltoes -14.877 0 0
rfemur 19.4584 8.49143 33.7338
rtibia 18.0719 -0 0
rfoot 28.8497 -2.43914 -0.250702
rtoes 18.4998 -0 0
lowerback 13.0591 1.16533 6.43967
upperback 0.835131 2.52376 0.511637
thorax -6.09829 1.06393 -3.51638
lowerneck -7.37407 -0.226735 -0.795611
upperneck -6.96275 -0.215789 0.971759
head -0.932134 -0.0909194 0.398007
lclavicle -8.96616e-15 -3.09078e-15 -1.50398e-31
lhumerus -58.9646 -5.32797 91.6273
lradius 104.477 -0 0
lwrist 26.5667 0 0
lhand -37.6821 10.8585 0.00110359
lfingers 7.12502 -0 0
lthumb -10.7326 40.5637 0.00117534
rclavicle -8.96616e-15 -3.09078e-15 -1.50398e-31
rhumerus -33.4281 21.7006 -88.1104
rradius 108.575 -0 0
rwrist -2.07192 0 0
rhand -43.6906 36.3979 -0.000357216
rfingers 7.12502 -0 0
rthumb -16.5234 7.08147 -0.000348192
60
root 0.612074 18.8073 -4.12262 5.38787 -4.08233 -6.68901
lfemur -35.3322 -6.67575 -8.19667
ltibia 41.2515 -0 0
lfoot 13.2095 -3.01568 0.113815
ltoes -15.2052 0 0
rfemur 21.1336 8.57914 34.0937
rtibia 17.7156 -0 0
rfoot 29.9911 -2.66822 -0.194828
rtoes 18.8101 -0 0
lowerback 12.9743 1.26723 6.73784
upperback 0.812849 2.69647 0.520642
thorax -6.06475 1.14161 -3.7074
lowerneck -7.49501 -0.363998 -0.76929
upperneck -6.81222 -0.396443 1.04946
head -0.862348 -0.18201 0.419994
lclavicle -9.34609e-15 -3.51079e-15 -1.16977e-31
lhumerus -59.8693 -4.84142 91.4276
lradius 104.379 -0 0
lwrist 26.4232 0 0
lhand -37.634 10.8828 0.00085835
lfingers 7.12502 -0 0
lthumb -10.6861 40.5906 0.000914151
rclavicle -9.34609e-15 -3.51079e-15 -1.16977e-31
rhumerus -32.6766 22.4016 -88.1158
rradius 109.153 -0 0
rwrist -1.98046 0 0
rhand -43.683 36.3482 -0.000277834
rfingers 7.12502 -0 0
rthumb -16.516 7.03117 -0.000270815
61
root 0.614423 18.8424 -3.59046 5.45046 -3.8312 -6.97052
lfemur -36.8896 -7.0679 -7.43224
ltibia 39.8249 -0 0
lfoot 12.63 -3.28188 0.0785655
ltoes -15.5335 0 0
rfemur 22.8096 8.65642 34.4561
rtibia 17.3594 -0 0
rfoot 31.1322 -2.89613 -0.134403
rtoes 19.1203 -0 0
lowerback 12.8901 1.36956 7.03587
upperback 0.790591 2.86918 0.529581
thorax -6.03147 1.2194 -3.89838
lowerneck -7.61602 -0.501204 -0.742679
upperneck -6.66194 -0.5773 1.12669
head -0.792597 -0.273127 0.441869
lclavicle -9.72603e-15 -3.9308e-15 -8.07695e-32
lhumerus -60.775 -4.35808 91.2203
lradius 104.28 -0 0
lwrist 26.2796 0 0
lhand -37.5858 10.9071 0.000592669
lfingers 7.12502 -0 0
lthumb -10.6397 40.6174 0.000631199
rclavicle -9.72603e-15 -3.9308e-15 -8.07695e-32
rhumerus -31.9214 23.1026 -88.1113
rradius 109.731 -0 0
rwrist -1.889 0 0
rhand -43.6754 36.2986 -0.000191838
rfingers 7.12502 -0 0
rthumb -16.5087 6.98087 -0.000186991
62
root 0.616773 18.8776 -3.05829 5.5118 -3.57977 -7.25168
lfemur -38.4534 -7.43923 -6.65671
ltibia 38.3982 -0 0
lfoot 12.0507 -3.54771 0.0406255
ltoes -15.8617 0 0
rfemur 24.4865 8.72318 34.8206
rtibia 17.0031 -0 0
rfoot 32.2731 -3.12279 -0.0694514
rtoes 19.4306 -0 0
lowerback 12.8064 1.47233 7.33376
upperback 0.768356 3.0419 0.538455
thorax -5.99845 1.2973 -4.08932
lowerneck -7.7371 -0.638354 -0.715777
upperneck -6.51188 -0.758359 1.20345
head -0.72288 -0.364271 0.463633
lclavicle -1.0106e-14 -4.35082e-15 -4.17773e-32
lhumerus -61.682 -3.87807 91.0055
lradius 104.181 -0 0
lwrist 26.136 0 0
lhand -37.5377 10.9314 0.000306552
lfingers 7.12502 -0 0
lthumb -10.5932 40.6443 0.000326481
rclavicle -1.0106e-14 -4.35082e-15 -4.17773e-32
rhumerus -31.162 23.8035 -88.0967
rradius 110.309 -0 0
rwrist -1.79753 0 0
rhand -43.6677 36.2489 -9.92261e-05
rfingers 7.12502 -0 0
rthumb -16.5013 6.93058 -9.67194e-05
63
root 0.619122 18.9128 -2.52613 5.57189 -3.32804 -7.53249
lfemur -40.0235 -7.78939 -5.87058
ltibia 36.9715 0 0
lfoot 11.4715 -3.81315 0
ltoes -16.1899 0 0
rfemur 26.164 8.77936 35.1871
rtibia 16.6469 0 0
rfoot 33.4137 -3.34812 0
rtoes 19.7408 0 0
lowerback 12.7233 1.57554 7.63152
upperback 0.746144 3.21462 0.547263
thorax -5.96569 1.37531 -4.28022
lowerneck -7.85825 -0.775447 -0.688585
upperneck -6.36207 -0.939619 1.27974
head -0.653197 -0.455441 0.485287
lclavicle -1.04859e-14 -4.77083e-15 0
lhumerus -62.5903 -3.40151 90.7833
lradius 104.082 0 0
lwrist 25.9924 0 0
lhand -37.4895 10.9557 0
lfingers 7.12502 0 0
lthumb -10.5468 40.6711 0
rclavicle -1.04859e-14 -4.77083e-15 0
rhumerus -30.3983 24.5041 -88.0718
rradius 110.887 0 0
rwrist -1.70607 0 0
rhand -43.6601 36.1992 0
rfingers 7.12502 0 0
rthumb -16.494 6.88028 0
